<svg width="93" height="52" viewBox="0 0 93 52" fill="none" xmlns="http://www.w3.org/2000/svg">
<g clip-path="url(#clip0_535_12449)">
<path d="M17.3842 32.4244C16.9199 33.7267 16.4064 35.0774 15.8472 36.4755C15.287 37.8741 14.7701 39.2021 14.2968 40.4611C13.8231 41.7195 13.4312 42.8515 13.1214 43.857C12.811 44.8619 12.6729 45.627 12.7077 46.1511C12.7077 46.3089 12.5865 46.4611 12.3462 46.6103C12.1043 46.759 11.8208 46.833 11.4935 46.833C11.1662 46.833 10.8345 46.7373 10.4988 46.5448C10.1631 46.3522 9.91728 45.9944 9.76234 45.4697C9.65955 45.1553 9.67594 44.6392 9.81449 43.923C9.95205 43.2058 10.1586 42.3672 10.4347 41.406C10.7104 40.4444 11.0416 39.3956 11.4294 38.2591C11.8168 37.1231 12.2131 35.9866 12.6183 34.8506C13.0225 33.7141 13.4188 32.6083 13.8062 31.5333C14.1935 30.4583 14.5252 29.4927 14.8014 28.6359C15.077 27.7796 15.2746 27.072 15.3958 26.512C15.5155 25.9531 15.5249 25.6205 15.4211 25.5151C15.3347 25.4461 15.3571 25.3624 15.4862 25.2662C15.6153 25.1699 15.8 25.0913 16.0414 25.0298C16.2827 24.9688 16.5578 24.9295 16.8687 24.9119C17.1786 24.8947 17.4711 24.9209 17.7467 24.9905C18.0223 25.0605 18.2632 25.1916 18.4702 25.3841C18.6768 25.5761 18.7975 25.8473 18.8318 26.1965C18.9003 26.8613 18.793 27.7398 18.5095 28.8319C18.2249 29.9246 17.8505 31.1226 17.3852 32.4244M32.9134 48.7215C32.1039 48.7563 31.3287 48.6207 30.5888 48.3148C29.8479 48.0089 29.1288 47.5976 28.4306 47.0825C27.7329 46.5664 27.057 45.9763 26.403 45.3125C25.7474 44.6477 25.0939 43.9754 24.4389 43.2935C23.7844 42.6116 23.1338 41.9564 22.4882 41.3269C21.8422 40.6979 21.1832 40.1561 20.5118 39.701C20.8733 39.6138 21.2393 39.5136 21.6093 39.3991C21.9802 39.2857 22.3457 39.133 22.7072 38.9405C23.6895 38.4864 24.5933 37.8962 25.4207 37.1705C26.247 36.4452 26.9621 35.6278 27.5655 34.7191C28.0988 33.9323 28.508 33.1108 28.7926 32.254C29.0762 31.3977 29.2271 30.5495 29.2445 29.7104C29.2609 28.8017 29.1149 27.901 28.805 27.0095C28.6501 26.5549 28.4475 26.1048 28.1982 25.6593C27.9479 25.2138 27.6594 24.7894 27.3326 24.3872C26.7123 23.6529 26.0618 23.0456 25.3809 22.5648C24.7006 22.0845 24.0029 21.7039 23.2888 21.4242C22.5732 21.1445 21.8417 20.948 21.0923 20.8341C20.3434 20.7207 19.5896 20.6728 18.8313 20.6899C17.8152 20.7075 16.7689 20.8996 15.6923 21.267C14.6156 21.6339 13.5827 22.1323 12.592 22.7618C11.6008 23.3913 10.684 24.1297 9.84031 24.9774C8.99609 25.8256 8.3073 26.7303 7.77296 27.6914C7.41143 28.338 7.11844 29.0154 6.89447 29.7235C6.6705 30.4316 6.54983 31.1397 6.53295 31.8478C6.51557 32.5554 6.63177 33.2464 6.88156 33.9192C7.13135 34.5926 7.54055 35.2089 8.10916 35.7679C8.35001 35.9604 8.63854 36.0476 8.97473 36.03C9.31093 36.0128 9.62081 35.9382 9.90487 35.8072C10.1889 35.6756 10.4089 35.5144 10.5639 35.3218C10.7188 35.1293 10.7446 34.964 10.6418 34.8234C10.1413 34.1939 9.83584 33.4384 9.72411 32.5549C9.61187 31.6724 9.66402 30.7501 9.87904 29.7885C10.0941 28.8269 10.4561 27.8743 10.9641 26.9304C11.4721 25.9859 12.1008 25.1432 12.8502 24.3998C13.6001 23.6569 14.4483 23.0496 15.3958 22.5774C16.3428 22.1051 17.3589 21.8607 18.4449 21.843C19.9084 21.9307 21.1355 22.3198 22.1267 23.0098C23.1169 23.7008 23.8663 24.5661 24.3743 25.6059C24.8819 26.6461 25.1401 27.7997 25.1495 29.0673C25.158 30.3348 24.9042 31.5807 24.3868 32.8039C24.0595 33.5906 23.6334 34.3164 23.1075 34.9801C22.5826 35.6449 21.9837 36.2255 21.3118 36.7239C20.6404 37.2224 19.9258 37.6291 19.168 37.9431C18.4097 38.2581 17.6345 38.4416 16.8424 38.494C16.5668 38.5293 16.4113 38.6865 16.3771 38.9657C16.3602 39.1058 16.3855 39.2238 16.455 39.3195C16.5236 39.4158 16.6184 39.4813 16.7391 39.5161C16.8945 39.5861 17.0579 39.639 17.2302 39.6738C17.4021 39.7091 17.5744 39.7434 17.7467 39.7781C18.3322 40.0407 18.9524 40.521 19.607 41.2206C20.2615 41.9196 20.9379 42.7285 21.6351 43.6463C22.3333 44.5641 23.0519 45.5166 23.7923 46.5049C24.5333 47.4923 25.2782 48.3969 26.0275 49.2184C26.7769 50.04 27.5258 50.7133 28.2751 51.2379C29.024 51.7621 29.7694 52.0156 30.5103 51.9985C31.0437 51.9808 31.5006 51.8019 31.88 51.4607C32.2584 51.12 32.5514 50.7435 32.7585 50.3333C32.965 49.922 33.0817 49.5506 33.1076 49.2189C33.1334 48.8868 33.0688 48.721 32.9134 48.721M50.5889 28.4897C50.9077 28.6207 51.2047 28.6863 51.4803 28.6863C51.7559 28.6863 51.8935 28.6167 51.8935 28.4766C51.8935 28.3546 51.9412 28.1878 52.036 27.9782C52.1304 27.7685 52.2337 27.5588 52.3464 27.3492C52.4581 27.139 52.5614 26.9389 52.6563 26.7459C52.7511 26.5539 52.7988 26.4052 52.7988 26.3004C52.7988 25.8634 52.6697 25.5051 52.4115 25.2253C52.1532 24.9456 51.8642 24.736 51.5459 24.5959C51.2271 24.4563 50.9385 24.3862 50.6803 24.3862C50.4221 24.3862 50.2929 24.4477 50.2929 24.5696C50.2929 24.675 50.2413 24.8232 50.138 25.0157C50.0347 25.2077 49.9185 25.4179 49.7889 25.6447C49.6603 25.872 49.5436 26.0862 49.4403 26.2873C49.337 26.4884 49.2853 26.6506 49.2853 26.7726C49.2853 27.2096 49.4229 27.5724 49.6985 27.8607C49.9741 28.149 50.2711 28.3587 50.5899 28.4897M67.597 35.4776L66.9509 36.5526C68.2078 36.6751 69.2154 36.4916 69.9738 36.0017C70.1972 35.8621 70.3998 35.6832 70.5806 35.4645C70.7614 35.2462 70.8949 34.9968 70.9809 34.717C71.0151 34.5951 71.0971 34.5165 71.2267 34.4812C71.3553 34.4464 71.472 34.464 71.5753 34.5336C71.6612 34.586 71.7302 34.6697 71.7819 34.7831C71.8335 34.897 71.8335 35.0235 71.7819 35.1631C71.6438 35.4604 71.4804 35.7099 71.2907 35.9105C71.101 36.1116 70.8855 36.2996 70.6447 36.474C70.162 36.8061 69.6281 37.0425 69.0431 37.1821C68.4571 37.3222 67.9064 37.3832 67.3894 37.3655C67.3894 37.9779 67.2991 38.755 67.1178 39.6995C66.937 40.6435 66.6828 41.6399 66.3555 42.6887C66.0283 43.7375 65.6359 44.7863 65.1801 45.8351C64.7232 46.8839 64.2286 47.8057 63.6947 48.6016C63.1609 49.3969 62.5878 50.0178 61.9765 50.4633C61.3652 50.9088 60.7494 51.062 60.1291 50.9219C59.6296 50.8171 59.3371 50.4673 59.2511 49.8731C59.1647 49.2789 59.2208 48.5184 59.419 47.5921C59.6171 46.6652 59.932 45.6033 60.362 44.4058C60.7926 43.2083 61.2837 41.9453 61.8345 40.6168C62.0197 40.1713 62.2129 39.7157 62.4046 39.2621C61.899 39.8079 61.3701 40.3179 60.8144 40.7871C60.1629 41.338 59.486 41.7886 58.7853 42.1378C58.0836 42.4881 56.6197 42.7149 55.8892 42.8197C55.1582 42.9246 54.4381 42.846 53.7265 42.5839C52.9364 42.3042 52.3687 41.8979 52.0231 41.3642C51.678 40.8315 51.4754 40.2413 51.4163 39.5947C51.4019 39.438 51.3949 39.2797 51.3944 39.1204C51.2941 39.2696 51.1973 39.4183 51.0935 39.568C50.6803 40.1627 50.2537 40.7045 49.8142 41.1939C49.3752 41.6837 48.9313 42.0854 48.4833 42.4004C48.0354 42.7149 47.6048 42.8722 47.1917 42.8722C46.847 42.8893 46.5501 42.8197 46.3003 42.6625C46.051 42.5053 45.8484 42.2825 45.6934 41.9937C45.538 41.7054 45.4347 41.3556 45.3831 40.9449C45.3314 40.5341 45.3314 40.0926 45.3831 39.6209C45.4034 39.4526 45.4307 39.2802 45.462 39.1063C45.3582 39.2605 45.2584 39.4138 45.1511 39.5685C44.7375 40.1632 44.3114 40.705 43.8719 41.1944C43.4329 41.6842 42.9889 42.0859 42.541 42.4009C42.0931 42.7154 41.6625 42.8727 41.2493 42.8727C40.9047 42.8898 40.6077 42.8202 40.3579 42.663C40.1082 42.5058 39.906 42.283 39.7511 41.9942C39.5957 41.7059 39.4924 41.3561 39.4407 40.9454C39.3891 40.5346 39.3891 40.0931 39.4407 39.6214C39.4715 39.3644 39.5331 39.0569 39.622 38.7056C39.5395 38.7969 39.4586 38.8881 39.3742 38.9788C38.7589 39.6345 38.1073 40.2373 37.4186 40.7881C36.7303 41.339 36.0157 41.7891 35.2757 42.1388C34.5348 42.4886 33.779 42.7154 33.0073 42.8208C32.2355 42.9256 31.4747 42.847 30.7234 42.5849C29.8891 42.3052 29.2892 41.899 28.9247 41.3652C28.5602 40.8325 28.3462 40.2423 28.2836 39.5952C28.221 38.9486 28.2836 38.2798 28.4708 37.5893C28.6585 36.8983 28.8884 36.2648 29.1591 35.6877C29.6597 34.6218 30.2173 33.7171 30.8326 32.9737C31.4479 32.2308 32.0995 31.623 32.7883 31.1513C33.4765 30.6796 34.1857 30.3303 34.9157 30.1025C35.6457 29.8757 36.3861 29.7618 37.137 29.7618C37.8879 29.7618 38.4763 29.919 38.8418 30.2335C39.2063 30.5485 39.3891 30.9593 39.3891 31.4658C39.3891 31.9723 39.2222 32.5322 38.8885 33.1441C38.5543 33.7559 38.0805 34.3547 37.4652 34.9403C36.8495 35.526 36.1046 36.0592 35.2286 36.5395C34.3525 37.0208 33.3723 37.3832 32.2882 37.6276C32.1417 38.0822 32.0379 38.5323 31.9748 38.9783C31.9122 39.4243 31.9018 39.8301 31.9435 40.198C31.9852 40.5649 32.0841 40.8708 32.2405 41.1152C32.3969 41.3602 32.6318 41.5084 32.9447 41.5608C33.4035 41.6308 33.8991 41.5739 34.4305 41.3904C34.9619 41.207 35.5047 40.9318 36.0574 40.5649C36.6101 40.198 37.1524 39.7696 37.6842 39.2797C38.2161 38.7908 38.7167 38.2747 39.186 37.7329C39.6553 37.1912 40.0719 36.6539 40.4374 36.1202C40.4593 36.0884 40.4776 36.0587 40.499 36.0269C40.7642 35.3032 41.0552 34.5417 41.378 33.7338C41.8775 32.4839 42.4025 31.2077 42.9542 29.9049C43.5049 28.6031 44.0005 27.4056 44.4395 26.313C44.879 25.2203 45.2187 24.3066 45.46 23.5722C45.7014 22.8379 45.7615 22.41 45.6413 22.2876C45.5201 22.1827 45.5762 22.0603 45.8091 21.9207C46.0415 21.7811 46.3301 21.7024 46.6747 21.6848C47.0189 21.6677 47.3759 21.7463 47.7469 21.9207C48.1173 22.0955 48.38 22.4453 48.535 22.9695C48.6552 23.354 48.6209 23.918 48.4317 24.6609C48.242 25.4043 47.9619 26.2469 47.5919 27.1914C47.2215 28.1359 46.7864 29.1545 46.2874 30.2466C45.7878 31.3393 45.2837 32.4193 44.7757 33.4853C44.2672 34.5517 43.785 35.5789 43.3286 36.5662C42.8722 37.554 42.5023 38.4194 42.2177 39.1623C41.9337 39.9057 41.7698 40.4953 41.7271 40.9323C41.6839 41.3693 41.808 41.5709 42.1015 41.5356C42.2738 41.5184 42.4928 41.3783 42.7605 41.1162C43.0272 40.8542 43.3241 40.5175 43.6519 40.1062C43.9787 39.696 44.3149 39.2369 44.6595 38.7298C45.0041 38.2228 45.3314 37.7163 45.6418 37.2093C45.9517 36.7023 46.2268 36.2215 46.4681 35.7669C46.5242 35.661 46.5759 35.5607 46.6241 35.4635C46.8321 34.9529 47.0422 34.453 47.2557 33.9701C47.5229 33.3669 47.7553 32.821 47.9535 32.3311C48.1511 31.8423 48.2892 31.431 48.3666 31.0989C48.4446 30.7673 48.4223 30.5394 48.3026 30.417C48.1819 30.3121 48.238 30.1897 48.4704 30.0501C48.7033 29.9105 48.9914 29.8318 49.336 29.8137C49.6806 29.7966 50.0372 29.8752 50.4082 30.0501C50.7781 30.225 51.0413 30.5742 51.1963 31.0989C51.3512 31.6059 51.3254 32.2223 51.1183 32.9475C50.9117 33.6728 50.6232 34.4288 50.2532 35.2155C49.8823 36.0022 49.4865 36.7804 49.0644 37.5495C48.6422 38.3191 48.2892 39.005 48.0051 39.6083C47.7206 40.2111 47.5572 40.6924 47.514 41.0507C47.4708 41.4091 47.6476 41.5709 48.0438 41.5356C48.2157 41.5184 48.4352 41.3783 48.7028 41.1162C48.9695 40.8542 49.2665 40.5175 49.5942 40.1062C49.921 39.696 50.2572 39.2369 50.6018 38.7298C50.9465 38.2228 51.2737 37.7163 51.5841 37.2093C51.668 37.0717 51.743 36.9412 51.822 36.8076C51.9491 36.4145 52.0892 36.0395 52.2451 35.6887C52.7193 34.6228 53.2472 33.7181 53.8297 32.9747C54.4123 32.2324 55.0295 31.624 55.6811 31.1523C56.3326 30.6806 57.0045 30.3313 57.6958 30.1035C58.3871 29.8767 59.0878 29.7628 59.7994 29.7628C60.511 29.7628 61.0682 29.92 61.4138 30.2345C61.759 30.5495 61.9323 30.9603 61.9323 31.4668C61.9323 31.9733 61.7739 32.5332 61.458 33.1451C61.1417 33.7569 60.6923 34.3557 60.1103 34.9413C59.5273 35.527 58.8216 36.0602 57.9918 36.5405C57.1624 37.0218 56.2338 37.3842 55.2073 37.6286C55.0688 38.0837 54.9704 38.5333 54.9108 38.9793C54.8517 39.4254 54.8418 39.8316 54.8815 40.199C54.9208 40.5659 55.0146 40.8718 55.1626 41.1168C55.3111 41.3617 55.5331 41.5099 55.8291 41.5623C56.2636 41.6323 57.4808 41.5754 57.9843 41.3919C58.4879 41.2085 59.0013 40.9333 59.5248 40.5664C60.0482 40.1995 60.5617 39.7711 61.0652 39.2812C61.5688 38.7923 62.043 38.2762 62.4875 37.734C62.932 37.1922 63.3263 36.6549 63.6724 36.1217C63.7712 35.969 63.8621 35.8213 63.9485 35.6751C64.4272 34.5759 64.896 33.4923 65.3474 32.437C65.916 31.1261 66.4459 29.8893 66.937 28.7266C67.4277 27.5639 67.8543 26.5367 68.2158 25.6452C68.5773 24.7541 68.849 24.0153 69.0297 23.4296C69.2105 22.8445 69.2666 22.464 69.1976 22.2891C69.1285 22.1318 69.2144 21.9832 69.4558 21.843C69.6966 21.7034 69.9896 21.6248 70.3343 21.6072C70.6789 21.59 71.0191 21.6818 71.3548 21.8829C71.691 22.084 71.9189 22.4468 72.0396 22.971C72.1429 23.4256 72.1345 23.9896 72.0138 24.6624C71.8931 25.3352 71.7039 26.0615 71.4457 26.8386C71.1874 27.6168 70.8771 28.4207 70.5155 29.2512C70.154 30.0818 69.792 30.8817 69.4305 31.6502C69.0684 32.4198 68.7238 33.1411 68.3965 33.8139C68.0693 34.4872 67.8026 35.0416 67.596 35.4786M55.5927 36.5803C56.7776 36.2134 57.7504 35.7109 58.5107 35.0729C59.271 34.4348 59.8386 33.8058 60.2145 33.1844C60.5895 32.564 60.7822 32.0267 60.7921 31.5721C60.802 31.1175 60.6292 30.8817 60.2736 30.864C59.7403 30.8469 59.0689 31.3015 58.2594 32.2278C57.4495 33.1547 56.6395 34.4303 55.8301 36.0567C55.7307 36.2487 55.6523 36.4236 55.5932 36.5808M32.6949 36.5808C33.9463 36.2139 34.9733 35.7114 35.7763 35.0734C36.5793 34.4353 37.1787 33.8063 37.5755 33.1854C37.9713 32.565 38.1744 32.0277 38.1853 31.5731C38.1957 31.1185 38.0135 30.8827 37.6381 30.865C37.0749 30.8479 36.3658 31.3025 35.5111 32.2288C34.6555 33.1557 33.8008 34.4313 32.9457 36.0572C32.8409 36.2497 32.758 36.4241 32.6954 36.5813M66.4082 37.5515C66.0466 38.3382 65.6419 39.1774 65.194 40.069C64.746 40.9605 64.2986 41.8566 63.8502 42.7567C63.4027 43.6569 62.9806 44.5222 62.5843 45.3528C62.188 46.1829 61.8523 46.9217 61.5762 47.5684C61.3011 48.215 61.1114 48.7482 61.0076 49.168C60.9043 49.5874 60.9217 49.8232 61.0593 49.8756C61.2659 50.0334 61.5544 49.915 61.9248 49.5218C62.2953 49.1287 62.6995 48.5648 63.139 47.8304C63.578 47.0961 64.013 46.2479 64.4436 45.2868C64.8737 44.3252 65.2531 43.3636 65.5803 42.4024C65.9071 41.4408 66.1529 40.5276 66.3168 39.6617C66.4802 38.7964 66.5105 38.0928 66.4072 37.551" fill="#E94190"/>
<mask id="mask0_535_12449" style="mask-type:luminance" maskUnits="userSpaceOnUse" x="0" y="0" width="93" height="26">
<path d="M22.3505 12.686C22.3505 20.2494 28.0654 25.3715 35.2175 25.3715C39.161 25.3715 42.3695 23.9472 44.4746 21.8103L39.595 15.8743C38.86 16.9261 37.4894 17.8076 35.6848 17.8076C33.1114 17.8076 30.9055 15.8062 30.9055 12.686C30.9055 9.56579 33.0443 7.49639 35.6848 7.49639C37.3226 7.49639 38.726 8.10723 39.595 9.29464L44.4746 3.32484C42.3025 1.28921 38.86 0 35.2175 0C28.0649 0 22.3505 4.98651 22.3505 12.686ZM50.6106 12.6971C50.6106 8.34512 54.1012 4.93661 58.3874 4.80507C62.31 4.68462 64.7091 7.04582 64.6669 9.19485C64.6461 10.2835 64.1177 10.7598 64.9252 11.8877C65.7326 13.0146 66.328 13.0751 66.0355 13.5191C65.7426 13.9626 65.0587 14.3003 65.0587 14.3003C65.166 14.6884 65.8017 14.9348 65.2852 15.4534C64.9018 15.8395 65.0647 15.5497 65.3016 15.9761C65.607 16.5355 64.7419 16.7396 64.6381 16.9765C64.5443 17.1877 66.0177 19.6709 62.171 18.9058C60.9002 18.5389 58.8895 18.7632 57.8719 20.5715C53.8281 20.3014 50.6116 16.8737 50.6116 12.6971M45.2106 12.5499C45.2106 20.2494 50.8584 25.371 58.3447 25.371C65.831 25.371 71.5121 20.2489 71.5121 12.5499C71.5121 4.85093 65.83 0 58.3437 0C50.8574 0 45.2096 4.85043 45.2096 12.5499M74.0502 8.2423C74.0502 12.4481 76.9578 14.1778 80.1663 15.2634C83.5085 16.3828 84.3442 16.7215 84.3442 17.604C84.3442 18.4865 83.4757 18.7233 82.5729 18.7233C80.6341 18.7233 78.5961 17.604 77.4926 16.3833L72.6468 21.7423C75.0528 23.913 78.7957 25.3715 82.6056 25.3715C87.3849 25.3715 92.3648 22.5905 92.3648 16.79C92.3648 11.8378 87.7857 10.3117 84.3765 9.19233C82.7392 8.64953 82.0375 8.41215 82.0375 7.70001C82.0375 6.91983 82.8063 6.61491 83.9758 6.61491C85.2123 6.61491 86.9832 7.32705 88.0529 8.6838L92.999 3.56222C90.5597 1.28921 87.0845 0 83.9763 0C79.3306 0 74.0502 2.27251 74.0502 8.2423ZM8.48145 6.95359H10.1525C11.3553 6.95359 12.5585 7.29278 12.5585 8.81887C12.5585 10.2437 11.3553 10.8202 10.1525 10.8202H8.48145V6.95359ZM0 0V25.3715H8.36823V17.2008H10.734C15.9245 17.2008 20.974 14.8003 20.974 8.52908C20.974 2.25789 15.8187 0 10.734 0H0Z" fill="white"/>
</mask>
<g mask="url(#mask0_535_12449)">
<path d="M92.9995 0H0V25.3715H92.9995V0Z" fill="url(#paint0_linear_535_12449)"/>
</g>
</g>
<defs>
<linearGradient id="paint0_linear_535_12449" x1="46.5929" y1="0.120051" x2="46.5929" y2="25.4669" gradientUnits="userSpaceOnUse">
<stop stop-color="#A8AAB3"/>
<stop offset="0.3" stop-color="#46618D"/>
<stop offset="0.31" stop-color="#455E8B"/>
<stop offset="0.5" stop-color="#394076"/>
<stop offset="0.65" stop-color="#344074"/>
<stop offset="0.81" stop-color="#26406F"/>
<stop offset="0.99" stop-color="#0F4067"/>
<stop offset="1" stop-color="#0E4067"/>
</linearGradient>
<clipPath id="clip0_535_12449">
<rect width="93" height="52" fill="white"/>
</clipPath>
</defs>
</svg>
